# xmcd
#
# Track frame offsets:
# 150
# 18845
# 37188
# 51185
# 65822
# 78929
# 92482
# 108130
# 125246
# 141245
# 156371
# 168909
# 185159
# 200224
# 214458
# 229435
#
# Disc length: 3240 seconds
#
#
# Revision: 0
# Processed by: cddbd v1.5.2PL0 Copyright (c) Steve Scherf et al.
# Submitted via: FreeRIP 2.941 
#
DISCID=f40ca610
DTITLE=Jonny Hill - On the Road again CD02
DYEAR=2007
DGENRE=Country
TTITLE0=Sylvias Mutter
TTITLE1=Wann wirds mal wieder richtig Sommer
TTITLE2=Einmal noch nach Haus
TTITLE3=In Dem kleine Haus am See
TTITLE4=Mein Lied fuer Dich
TTITLE5=Ruby machs mir doch mit so schwer
TTITLE6=Mein Leben mit Dir
TTITLE7=Wo der Mond versinkt
TTITLE8=Solang dein Traum dich traegt
TTITLE9=Der Junge und die Traeume
TTITLE10=Idole und Freunde
TTITLE11=In dieser Nacht sind wir geborgen
TTITLE12=Niemals mehr
TTITLE13=Wer wie ich viel unterwegs war
TTITLE14=Ich war immer schon fast oben
TTITLE15=Jetzt sage ich euch Gute Nacht
EXTD=
EXTT0=
EXTT1=
EXTT2=
EXTT3=
EXTT4=
EXTT5=
EXTT6=
EXTT7=
EXTT8=
EXTT9=
EXTT10=
EXTT11=
EXTT12=
EXTT13=
EXTT14=
EXTT15=
PLAYORDER=
